<svg version="1.2" xmlns="http://www.w3.org/2000/svg" viewBox="0 0 2071 294" width="2071" height="294">
	<title>logo-svg</title>
	<style>
		.s0 { fill: #000000 } 
	</style>
	<path id="taskManaGeR" class="s0" aria-label="taskManaGeR"  d="m100.1 204v-124.9h-23v124.9zm60.8-136.4v-22.9h-142.1v22.9zm7.3 136.4h30.4l50.5-91.3-15.1-27.6zm103.7-132.5l-15.2-27.4-15.1 27.4 15.1 27.4 58.2 105.1h30.4zm202.4 41.3h-45.7c-1.3-0.1-2.6-0.2-3.9-0.2-0.8 0-1.6 0.1-2.3 0.1-11.5-1.1-20.4-10.8-20.4-22.5 0-12.5 10.1-22.6 22.6-22.6h50.5c11.7 0.4 21.2 9.7 21.8 21.4h23c-0.2-7.8-2.3-15.1-6-21.4 0 0 0-0.1 0-0.1-7.7-13.4-22-22.5-38.5-22.9-0.3 0-0.7 0-1.1 0-0.4 0-0.8 0-1.2 0h-48.5c-16.9 0-31.7 9.2-39.6 23-3.8 6.6-6 14.4-6 22.6 0 8.2 2.2 15.9 6 22.6 1.9 3.3 4.2 6.4 6.9 9.2 8.3 8.5 19.9 13.8 32.7 13.8h49.7c12.5 0 22.6 10.1 22.6 22.6 0 12.5-10.1 22.6-22.6 22.6h-49.6c-12.1 0-22-9.5-22.7-21.4h-23c0.2 7.8 2.4 15.1 6 21.4 7.9 13.8 22.7 23 39.7 23h49.6c17 0 31.8-9.2 39.6-23 3.9-6.6 6-14.4 6-22.6 0-8.2-2.1-15.9-6-22.6-7.8-13.7-22.6-23-39.6-23zm115.5 2.3v-70.4h-22.9v93.4l21.9-21.9zm39.6 9.2l79.7-79.7h-32.5l-67.9 67.9-18.9 18.9v-0.1l-23 23v49.7h23v-40.1l23.4-23.3 63.4 63.4h32.5zm126.4 79.7h23v-88.3l-23-23zm71.7-88.3l-71.7-71.7v32.5l23 23 48.7 48.7 8.7-8.8 7.5-7.5 31.3-31.3v103.4h23v-158.9zm114.8 88.4h30.4l50.5-91.3-15.1-27.6zm103.7-132.5l-15.1-27.4-15.2 27.4 15.2 27.4 58.1 105.1h30.4zm109.7 132.5h23v-88l-23-23zm103.6-159.4v103.2l-103.6-103.5v32.5l23 23 80.6 80.5 23 23v-158.7zm64.7 159.4h30.3l50.6-91.3-15.1-27.6zm103.7-132.5l-15.2-27.4-15.2 27.4 15.2 27.4 58.2 105.1h30.3zm236.4 35.9h-79l10.6 23h45.4v50.7h-53.9c-28.8-3.9-51-27.8-51-56.6 0-28.8 22.2-52.7 51-56.5h76.6v-23h-68.5c-22.4 0-42.6 8.8-57.4 23-14.9 14.4-24.2 34.4-24.2 56.5 0 22.2 9.3 42.2 24.2 56.6 14.8 14.2 35 22.9 57.4 22.9h68.8zm72.5 22.7h102.5v-23h-102.5v-27.9h-23v124.9h141v-23h-118zm-23-85.4v23h141v-23zm286.1 77l-2.7-4.5c0.1-0.1 0.3-0.2 0.4-0.3 0.1 0 0.1-0.1 0.2-0.1 0.4-0.3 0.8-0.5 1.2-0.8 0.1 0 0.1 0 0.1-0.1 0.4-0.3 0.9-0.5 1.3-0.8 0.9-0.7 1.8-1.4 2.7-2 0.2-0.2 0.5-0.4 0.7-0.6 0.3-0.3 0.7-0.5 1-0.8 0.5-0.4 0.9-0.8 1.4-1.2 0.1 0 0.1 0 0.1-0.1 0.4-0.3 0.7-0.6 1.1-0.9 1-0.9 2.1-1.9 3.1-2.9 10.7-10.6 18.4-24.2 21.8-39.4 1.3-5.6 1.9-11.4 1.9-17.3 0-1.9-0.1-3.8-0.2-5.7h-132.2v159.9h23v-74.5h29.6c0.6 0 1.1 0 1.7 0 0.3 0 0.5 0 0.8 0 0.5 0 0.9-0.1 1.4-0.1 0.1 0 0.2 0 0.3 0 0.6 0 1.2-0.1 1.9-0.1 0 0 0 0 0 0 0.7-0.1 1.4-0.1 2-0.2 0.6 0 1.1-0.1 1.7-0.2 0.2 0 0.4 0 0.6-0.1 0.5 0 1-0.1 1.6-0.2 0.2 0 0.4 0 0.6-0.1 0.4 0 0.8-0.1 1.2-0.2 1.4-0.2 2.7-0.5 4.1-0.8 0.6-0.1 1.2-0.3 1.8-0.4 0.1 0 0.2-0.1 0.4-0.1 0.4-0.1 0.8-0.2 1.2-0.4 0.1 0 0.2 0 0.3 0l1.3 2 45.9 75.4h26.9zm-22.9-19.8c-7.1 3-14.7 4.6-22.6 4.6h-29.6v-39.4h83.7c-2.8 8.7-7.6 16.6-14.2 23.1-5.1 5-11 8.9-17.3 11.7z"/>
	<path id="Form 1" class="s0" d="m0 247h2074v16h-2074z"/>
</svg>